<?xml version="1.0" encoding="utf-8"?>
<!-- Generator: Adobe Illustrator 21.0.0, SVG Export Plug-In . SVG Version: 6.00 Build 0)  -->
<svg version="1.1" id="Layer_1" xmlns="http://www.w3.org/2000/svg" xmlns:xlink="http://www.w3.org/1999/xlink" x="0px" y="0px"
	 viewBox="0 0 1130.3 1029.4" style="enable-background:new 0 0 1130.3 1029.4;" xml:space="preserve">
<style type="text/css">
	.st0{fill:#fff;}
</style>
<g>
	<g>
		<path class="st0" d="M568.3,844.3C568.3,844.3,568.3,844.3,568.3,844.3c-35,0-105.9-55.2-160.5-109.8
			C393.3,720,267.8,592.4,305,555.2l28.7-28.7c3.2-3.2,9.1-7.1,18.7-7.1c35,0,105.8,55.2,160.5,109.8
			c14.4,14.4,139.9,142.1,102.7,179.3L587,837.2C583.8,840.5,577.9,844.3,568.3,844.3z M325,573.6c-1.8,12.9,29.9,69.7,101.9,141.8
			c70.3,70.3,125,101.9,141.4,101.9l0,0c0.2,0,0.3,0,0.4,0l27-27c1.8-12.9-29.8-69.6-101.9-141.7c-70.3-70.3-125-101.9-141.4-101.9
			c-0.2,0-0.3,0-0.4,0L325,573.6z"/>
	</g>
	<g>
		<path class="st0" d="M591,901.6c-52.7,0-141.2-61.1-215.2-135.2C328,718.6,288.5,668.1,264.5,624c-26.9-49.4-31.2-85.4-12.4-104.1
			c15.6-15.6,42.3-15.4,79.6,0.4c4.7,2,9.6,4.3,14.6,6.8c6.7,3.3,9.4,11.5,6.1,18.2c-3.3,6.7-11.5,9.4-18.2,6.1
			c-4.5-2.2-8.9-4.3-13.1-6.1c-28.9-12.3-44.7-11.3-49.8-6.2c-7.1,7.1-4.6,32.2,17.1,72c22.8,41.8,60.6,90.2,106.6,136.2
			C496.3,848.6,586,888.2,603.2,871c4.7-4.7,6.1-19.2-4.5-45.5c-2.3-5.7-5-11.8-8.3-18.2c-3.4-6.7-0.7-14.8,6-18.2
			c6.7-3.4,14.8-0.7,18.2,6c3.6,7.1,6.7,13.9,9.2,20.3c13.9,34.7,13.3,59.9-1.6,74.7C614.5,898,603.8,901.6,591,901.6z"/>
	</g>
	<g>
		<path class="st0" d="M596.9,815.6c-35,0-105.8-55.2-160.5-109.8c-35.8-35.8-66.4-72.5-86.4-103.6c-24.6-38.3-29.8-62.3-16.4-75.7
			c3.2-3.2,9.1-7.1,18.7-7.1c35,0,105.8,55.2,160.5,109.8c14.4,14.4,139.9,142.1,102.7,179.3C612.4,811.8,606.6,815.6,596.9,815.6z
			 M353.6,546.6c0.8,15.6,32.7,70.8,102,140c68.7,68.7,122.5,100.5,140.2,101.9c-0.8-15.6-32.7-70.7-102-140
			C425.1,579.7,371.3,548,353.6,546.6z"/>
	</g>
	<g>
		<path class="st0" d="M13.5,789c-3.5,0-7-1.3-9.6-4c-5.3-5.3-5.2-13.9,0.1-19.2l248.1-246c5.3-5.3,13.9-5.2,19.2,0.1
			c5.3,5.3,5.2,13.9-0.1,19.2l-248.1,246C20.4,787.7,17,789,13.5,789z"/>
	</g>
	<g>
		<path class="st0" d="M477.5,1029.4c-3.5,0-6.9-1.3-9.6-4c-5.3-5.3-5.3-13.9,0-19.2L603.2,871c5.3-5.3,13.9-5.3,19.2,0
			c5.3,5.3,5.3,13.9,0,19.2l-135.3,135.3C484.4,1028.1,481,1029.4,477.5,1029.4z"/>
	</g>
	<g>
		<path class="st0" d="M476,711.1c-3.5,0-6.9-1.3-9.6-3.9c-5.3-5.3-5.3-13.9,0-19.2c186.6-187.3,381.1-371.8,578-548.5
			c5.6-5,14.1-4.5,19.1,1c5,5.6,4.5,14.1-1,19.1C865.9,336,671.8,520.2,485.6,707.1C482.9,709.7,479.5,711.1,476,711.1z"/>
	</g>
	<g>
		<path class="st0" d="M540.8,771.3c-3.4,0-6.8-1.3-9.5-3.9c-5.3-5.2-5.4-13.8-0.2-19.2c158.3-161.8,345.4-299.1,556.3-408.2
			c6.6-3.4,14.8-0.8,18.3,5.8c3.4,6.6,0.8,14.8-5.8,18.3C891.6,472,706.7,607.6,550.5,767.3C547.8,770,544.3,771.3,540.8,771.3z"/>
	</g>
	<g>
		<path class="st0" d="M509,740.6c-3.4,0-6.9-1.3-9.5-3.9c-5.3-5.3-5.4-13.8-0.1-19.2c176.7-178.7,371.8-343.9,579.9-491.3
			c6.1-4.3,14.6-2.9,18.9,3.2c4.3,6.1,2.9,14.6-3.2,18.9C888.2,394.8,694.3,559,518.6,736.6C516,739.2,512.5,740.6,509,740.6z"/>
	</g>
	<g>
		<path class="st0" d="M570.8,804.2c-3.4,0-6.7-1.2-9.3-3.7c-5.4-5.2-5.6-13.7-0.5-19.1c129.1-135.6,304.9-239.4,508.3-300.1
			c7.2-2.1,14.7,1.9,16.9,9.1c2.1,7.2-1.9,14.7-9.1,16.9c-198.9,59.4-370.6,160.7-496.5,292.9C577.9,802.8,574.3,804.2,570.8,804.2z
			"/>
	</g>
	<g>
		<path class="st0" d="M351.6,585c-3.6,0-7.2-1.4-9.8-4.2c-5.2-5.4-5-14,0.5-19.1C474.4,435.8,575.7,264.1,635.1,65.2
			c2.1-7.2,9.7-11.2,16.9-9.1c7.2,2.1,11.2,9.7,9.1,16.9C600.3,276.4,496.5,452.2,361,581.3C358.3,583.8,355,585,351.6,585z"/>
	</g>
	<g>
		<path class="st0" d="M415.2,646.8c-3.5,0-7-1.3-9.6-4c-5.3-5.3-5.2-13.9,0.1-19.2C583.2,448,747.4,254.1,893.9,47.3
			c4.3-6.1,12.8-7.6,18.9-3.2c6.1,4.3,7.5,12.8,3.2,18.9C768.6,271,603.4,466.1,424.7,642.8C422.1,645.5,418.6,646.8,415.2,646.8z"
			/>
	</g>
	<g>
		<path class="st0" d="M384.4,614.9c-3.5,0-7-1.4-9.7-4.1c-5.2-5.3-5.1-13.9,0.2-19.2C534.6,435.5,670.3,250.6,778,42.4
			c3.4-6.6,11.6-9.2,18.3-5.8c6.6,3.4,9.2,11.6,5.8,18.3C693,265.6,555.7,452.8,393.9,611.1C391.3,613.7,387.8,614.9,384.4,614.9z"
			/>
	</g>
	<g>
		<path class="st0" d="M444.7,679.8c-3.5,0-6.9-1.3-9.6-4c-5.3-5.3-5.3-13.9,0-19.2C622,470.4,806.2,276.4,982.6,79.8
			c5-5.6,13.6-6,19.1-1c5.6,5,6,13.6,1,19.1c-176.7,197-361.3,391.4-548.5,578C451.6,678.5,448.2,679.8,444.7,679.8z"/>
	</g>
	<path class="st0" d="M1118.1,494.2c0-19.1-15.5-34.5-34.5-34.5c-19.1,0-34.5,15.5-34.5,34.5c0,19.1,15.5,34.5,34.5,34.5
		C1102.7,528.7,1118.1,513.2,1118.1,494.2z"/>
	<path class="st0" d="M1130.3,352.2c0-19.1-15.5-34.5-34.5-34.5c-19.1,0-34.6,15.5-34.6,34.5c0,19.1,15.5,34.5,34.6,34.5
		C1114.8,386.7,1130.3,371.2,1130.3,352.2z"/>
	<path class="st0" d="M1130.3,232.2c0-19.1-15.5-34.5-34.5-34.5c-19.1,0-34.6,15.5-34.6,34.5c0,19.1,15.5,34.5,34.6,34.5
		C1114.8,266.7,1130.3,251.2,1130.3,232.2z"/>
	<path class="st0" d="M1095.7,143c0-19.1-15.5-34.5-34.6-34.5s-34.5,15.5-34.5,34.5c0,19.1,15.5,34.5,34.5,34.5
		S1095.7,162,1095.7,143z"/>
	<path class="st0" d="M1026.6,83.1c0-19.1-15.5-34.5-34.5-34.5c-19.1,0-34.5,15.5-34.5,34.5c0,19.1,15.5,34.5,34.5,34.5
		C1011.2,117.7,1026.6,102.2,1026.6,83.1z"/>
	<path class="st0" d="M939.4,48.6c0-19.1-15.5-34.5-34.5-34.5c-19.1,0-34.5,15.5-34.5,34.5c0,19.1,15.5,34.5,34.5,34.5
		C924,83.1,939.4,67.7,939.4,48.6z"/>
	<path class="st0" d="M824.6,34.5c0-19.1-15.5-34.5-34.5-34.5c-19.1,0-34.5,15.5-34.5,34.5c0,19.1,15.5,34.5,34.5,34.5
		C809.1,69.1,824.6,53.6,824.6,34.5z"/>
	<ellipse class="st0" cx="643.8" cy="69.1" rx="34.5" ry="34.5"/>
</g>
</svg>
